<svg width="32" height="32" viewBox="0 0 32 32" fill="none" xmlns="http://www.w3.org/2000/svg">
<path d="M14.25 23.25H10.75C9.64543 23.25 8.75 22.3546 8.75 21.25V11.75H21.25C22.3546 11.75 23.25 12.6454 23.25 13.75V14.25M17.5 11.75L16.5685 9.7923C16.2181 9.14977 15.5446 8.75 14.8127 8.75H10.75C9.64543 8.75 8.75 9.64543 8.75 10.75V15M17.75 23.25C17.75 23.25 19 21.75 20.5 21.75C22 21.75 23.25 23.25 23.25 23.25M20.5 19.25C21.4665 19.25 22.25 18.4665 22.25 17.5C22.25 16.5335 21.4665 15.75 20.5 15.75C19.5335 15.75 18.75 16.5335 18.75 17.5C18.75 18.4665 19.5335 19.25 20.5 19.25Z" stroke="#D9D9DD" stroke-width="1.2" stroke-linecap="round" stroke-linejoin="round"/>
</svg>
