<svg width="21" height="20" viewBox="0 0 21 20" fill="none" xmlns="http://www.w3.org/2000/svg">
<path d="M5.29134 3.95801H15.708M5.29134 3.95801V11.0413C5.29134 11.4834 5.46694 11.9073 5.7795 12.2199C6.09206 12.5324 6.51598 12.708 6.95801 12.708H8.83301M5.29134 3.95801H4.45801M15.708 3.95801V11.0413C15.708 11.4834 15.5324 11.9073 15.2199 12.2199C14.9073 12.5324 14.4834 12.708 14.0413 12.708H12.1663M15.708 3.95801H16.5413M8.83301 12.708L7.79134 16.0413M8.83301 12.708H12.1663M12.1663 12.708L13.208 16.0413" stroke="#554EF1" stroke-width="1.25" stroke-linecap="round" stroke-linejoin="round"/>
<path d="M7.7915 10.208L9.6665 8.12467L11.3332 10.208L13.2082 6.45801" stroke="#554EF1" stroke-width="1.25" stroke-linecap="round" stroke-linejoin="round"/>
</svg>
