<svg width="21" height="20" viewBox="0 0 21 20" fill="none" xmlns="http://www.w3.org/2000/svg">
<path d="M11.4327 4.67747C11.3758 4.26514 11.0234 3.95801 10.6072 3.95801H10.3931C9.97691 3.95801 9.6245 4.26514 9.56758 4.67747L9.495 5.20393C9.44866 5.5398 9.20041 5.80715 8.88533 5.93236C8.8385 5.95097 8.792 5.97037 8.74597 5.99055C8.4353 6.12667 8.07048 6.11501 7.79913 5.9115L7.54282 5.71927C7.21105 5.47044 6.7468 5.50343 6.45356 5.79667L6.29717 5.95307C6.00393 6.24632 5.97093 6.71056 6.21975 7.04232L6.41199 7.29864C6.6155 7.56998 6.62716 7.93481 6.49104 8.24548C6.47086 8.29152 6.45146 8.33801 6.43285 8.38484C6.30764 8.69992 6.04029 8.94817 5.70442 8.99451L5.17796 9.06709C4.76563 9.12401 4.4585 9.47634 4.4585 9.89259V10.1068C4.4585 10.5229 4.76563 10.8753 5.17796 10.9323L5.70442 11.0048C6.04029 11.0512 6.30764 11.2994 6.43285 11.6145C6.45146 11.6613 6.47086 11.7078 6.49104 11.7538C6.62716 12.0645 6.6155 12.4293 6.41199 12.7007L6.21975 12.957C5.97093 13.2888 6.00392 13.753 6.29716 14.0463L6.45356 14.2027C6.7468 14.4959 7.21105 14.5289 7.54281 14.2801L7.79913 14.0878C8.07047 13.8843 8.4353 13.8727 8.74596 14.0088C8.792 14.029 8.8385 14.0483 8.88533 14.067C9.20041 14.1922 9.44866 14.4596 9.495 14.7954L9.56758 15.3218C9.6245 15.7342 9.97691 16.0413 10.3931 16.0413H10.6072C11.0234 16.0413 11.3758 15.7342 11.4327 15.3218L11.5053 14.7954C11.5517 14.4596 11.7999 14.1922 12.115 14.067C12.1618 14.0483 12.2083 14.029 12.2543 14.0088C12.565 13.8727 12.9298 13.8843 13.2012 14.0878L13.4575 14.2801C13.7892 14.5289 14.2535 14.4959 14.5467 14.2027L14.7032 14.0463C14.9964 13.753 15.0294 13.2888 14.7806 12.957L14.5883 12.7007C14.3848 12.4293 14.3732 12.0645 14.5093 11.7538C14.5295 11.7078 14.5488 11.6613 14.5675 11.6145C14.6927 11.2994 14.9601 11.0512 15.2959 11.0048L15.8223 10.9323C16.2347 10.8753 16.5418 10.5229 16.5418 10.1068V9.89259C16.5418 9.47642 16.2347 9.12401 15.8223 9.06709L15.2959 8.99451C14.9601 8.94817 14.6927 8.69992 14.5675 8.38484C14.5488 8.33801 14.5295 8.29152 14.5092 8.24547C14.3732 7.93481 14.3848 7.56998 14.5883 7.29863L14.7806 7.04234C15.0294 6.71057 14.9964 6.24633 14.7032 5.95309L14.5467 5.79669C14.2535 5.50345 13.7892 5.47046 13.4575 5.71928L13.2012 5.9115C12.9298 6.11502 12.565 6.12667 12.2543 5.99055C12.2083 5.97037 12.1618 5.95097 12.115 5.93236C11.7999 5.80715 11.5517 5.5398 11.5053 5.20393L11.4327 4.67747Z" stroke="#050552" stroke-opacity="0.8" stroke-width="1.25" stroke-linecap="round" stroke-linejoin="round"/>
<path d="M11.5418 9.99967C11.5418 10.575 11.0755 11.0413 10.5002 11.0413C9.92483 11.0413 9.4585 10.575 9.4585 9.99967C9.4585 9.42434 9.92483 8.95801 10.5002 8.95801C11.0755 8.95801 11.5418 9.42434 11.5418 9.99967Z" stroke="#050552" stroke-opacity="0.8" stroke-width="1.25" stroke-linecap="round" stroke-linejoin="round"/>
</svg>
